<svg xmlns="http://www.w3.org/2000/svg" width="100%" height="100%" viewBox="0 0 1776 256">
  <g fill="none" fill-rule="evenodd">
    <path fill="#13233F" d="M438.528777,81.8 L464.060426,155.562 L489.592075,81.8 L519.120852,81.8 L479.546296,192 L448.574556,192 L409,81.8 L438.528777,81.8 Z M632.039693,137 C632.039693,106.624 607.433379,82 577.079195,82 C546.725012,82 522.118697,106.624 522.118697,137 C522.118697,167.376 546.725012,192 577.079195,192 C607.433379,192 632.039693,167.376 632.039693,137 Z M577.879067,165 C593.331227,165 605.85851,152.463712 605.85851,137.000446 C605.85851,121.536288 593.331227,109 577.879067,109 C562.426015,109 549.898731,121.536288 549.898731,137.000446 C549.898731,152.463712 562.426015,165 577.879067,165 L577.879067,165 Z M692.995882,108 L695.793871,86 L681.0045,86 L681.0045,64 L653.02461,64 L653.02461,86 L641.033229,86 L641.033229,108 L653.02461,108 L653.02461,149.6 C653.02461,178 664.01671,192 688.998755,192 C696.593296,192 700.79028,191 700.79028,191 L700.79028,167.4 C698.59186,167.6 697.592578,167.6 695.793871,167.6 C685.201484,167.6 681.0045,164.6 681.0045,149 L681.0045,108 L692.995882,108 Z M759.747904,109 L762.545893,86 L747.756523,86 L747.756523,64 L719.776633,64 L719.776633,86 L708.784534,86 L708.784534,109 L719.776633,109 L719.776633,149.6 C719.776633,178 730.768733,192 755.750777,192 C763.345319,192 767.542302,191 767.542302,191 L767.542302,167.4 C765.343882,167.6 764.344601,167.6 762.545893,167.6 C751.953507,167.6 747.756523,164.6 747.756523,149 L747.756523,109 L759.747904,109 Z"/>
    <path fill="#448AFF" d="M837.02684,158.666667 L841.292028,158.666667 L841.292028,118.218667 L851.613781,118.218667 L851.613781,114.378667 L841.292028,114.378667 L841.292028,111.648 C841.292028,104.309333 844.362963,101.152 849.822402,101.152 C850.846047,101.152 851.954996,101.322667 851.954996,101.322667 L851.954996,97.4826667 C851.954996,97.4826667 850.760743,97.312 849.651795,97.312 C843.16871,97.312 837.02684,100.725333 837.02684,111.733333 L837.02684,114.378667 L831.908616,114.378667 L831.908616,118.218667 L837.02684,118.218667 L837.02684,158.666667 Z M860.911889,136.48 C860.911889,125.642667 868.418619,117.28 879.16689,117.28 C890.000466,117.28 897.507196,125.642667 897.507196,136.48 C897.507196,147.573333 889.915162,155.765333 879.16689,155.765333 C868.418619,155.765333 860.911889,147.573333 860.911889,136.48 L860.911889,136.48 Z M856.476094,136.48 C856.476094,149.962667 866.115417,159.776 879.16689,159.776 C892.13306,159.776 901.94299,149.792 901.94299,136.48 C901.94299,123.338667 892.303667,113.269333 879.252194,113.269333 C866.200721,113.269333 856.476094,123.168 856.476094,136.48 L856.476094,136.48 Z M929.410796,113.269333 C922.245282,113.269333 917.127057,117.877333 915.762197,122.314667 L915.762197,114.378667 L911.49701,114.378667 L911.49701,158.666667 L915.762197,158.666667 L915.762197,135.285333 C915.762197,126.069333 918.918436,117.450667 929.410796,117.450667 L929.410796,113.269333 Z M967.200355,98.9333333 L961.740915,98.9333333 L961.740915,158.666667 L965.920799,158.666667 L965.920799,105.333333 L988.526291,152.949333 L993.132693,152.949333 L1015.73819,105.333333 L1015.73819,158.666667 L1019.91807,158.666667 L1019.91807,98.9333333 L1014.45863,98.9333333 L990.829492,148.256 L967.200355,98.9333333 Z M1030.41043,136.650667 C1030.41043,150.474667 1039.87915,159.776 1052.93062,159.776 C1062.48464,159.776 1068.11469,154.912 1071.01501,150.218667 L1068.19999,148.256 C1065.64088,151.84 1061.11978,155.850667 1052.93062,155.850667 C1042.35295,155.850667 1034.84622,149.024 1034.84622,137.248 L1072.55048,137.248 L1072.55048,135.456 C1072.55048,122.741333 1064.44662,113.269333 1051.73637,113.269333 C1040.47627,113.269333 1030.41043,122.144 1030.41043,136.650667 L1030.41043,136.650667 Z M1035.10214,133.493333 C1035.95517,122.656 1043.63251,117.194667 1051.65106,117.194667 C1060.01083,117.194667 1067.60286,122.4 1068.11469,133.493333 L1035.10214,133.493333 Z M1078.52174,149.621333 C1080.31312,154.058667 1083.89588,159.776 1093.4499,159.776 C1101.46845,159.776 1107.43971,154.570667 1107.43971,147.146667 C1107.43971,131.957333 1084.57831,135.882667 1084.57831,124.448 C1084.57831,119.754667 1088.50228,117.024 1093.27929,117.024 C1099.67707,117.024 1101.89497,120.693333 1103.08922,123.424 L1106.58667,122.058667 C1105.56303,118.56 1101.80966,113.269333 1093.6205,113.269333 C1086.11378,113.269333 1080.39842,117.621333 1080.39842,124.704 C1080.39842,139.296 1103.25983,135.370667 1103.25983,147.317333 C1103.25983,152.778667 1098.65343,155.936 1093.6205,155.936 C1087.05212,155.936 1083.89588,152.096 1082.1898,148.170667 L1078.52174,149.621333 Z M1113.41097,149.621333 C1115.20235,154.058667 1118.78511,159.776 1128.33913,159.776 C1136.35768,159.776 1142.32894,154.570667 1142.32894,147.146667 C1142.32894,131.957333 1119.46754,135.882667 1119.46754,124.448 C1119.46754,119.754667 1123.39151,117.024 1128.16852,117.024 C1134.5663,117.024 1136.7842,120.693333 1137.97845,123.424 L1141.47591,122.058667 C1140.45226,118.56 1136.6989,113.269333 1128.50974,113.269333 C1121.00301,113.269333 1115.28766,117.621333 1115.28766,124.704 C1115.28766,139.296 1138.14906,135.370667 1138.14906,147.317333 C1138.14906,152.778667 1133.54266,155.936 1128.50974,155.936 C1121.94135,155.936 1118.78511,152.096 1117.07903,148.170667 L1113.41097,149.621333 Z M1148.64142,136.650667 C1148.64142,150.474667 1158.11014,159.776 1171.16161,159.776 C1180.71563,159.776 1186.34568,154.912 1189.246,150.218667 L1186.43098,148.256 C1183.87187,151.84 1179.35077,155.850667 1171.16161,155.850667 C1160.58394,155.850667 1153.07721,149.024 1153.07721,137.248 L1190.78147,137.248 L1190.78147,135.456 C1190.78147,122.741333 1182.67761,113.269333 1169.96736,113.269333 C1158.70726,113.269333 1148.64142,122.144 1148.64142,136.650667 L1148.64142,136.650667 Z M1153.33313,133.493333 C1154.18616,122.656 1161.8635,117.194667 1169.88205,117.194667 C1178.24182,117.194667 1185.83385,122.4 1186.34568,133.493333 L1153.33313,133.493333 Z M1218.33458,113.269333 C1212.10741,113.269333 1206.73327,116.938667 1204.51537,121.376 L1204.51537,114.378667 L1200.25019,114.378667 L1200.25019,158.666667 L1204.51537,158.666667 L1204.51537,131.616 C1204.51537,122.997333 1210.06012,117.194667 1217.82276,117.194667 C1224.73236,117.194667 1229.85059,122.144 1229.85059,130.250667 L1229.85059,158.666667 L1234.11577,158.666667 L1234.11577,129.909333 C1234.11577,119.584 1227.46208,113.269333 1218.33458,113.269333 L1218.33458,113.269333 Z M1248.4468,170.357333 C1252.28547,172.832 1258.51264,174.965333 1264.05739,174.965333 C1276.76764,174.965333 1285.55393,169.077333 1285.55393,152.266667 L1285.55393,114.378667 L1281.28874,114.378667 L1281.28874,122.826667 C1279.83858,120.096 1274.46444,113.269333 1264.3986,113.269333 C1251.94426,113.269333 1243.24327,122.997333 1243.24327,136.650667 C1243.24327,150.133333 1252.20017,159.776 1264.82512,159.776 C1275.48809,159.776 1280.2651,152.181333 1281.28874,150.474667 L1281.28874,155.253333 C1281.28874,166.688 1273.5261,170.954667 1263.97208,170.954667 C1257.489,170.954667 1252.11486,168.138667 1250.23818,166.944 L1248.4468,170.357333 Z M1281.45935,136.650667 C1281.45935,147.061333 1274.97627,155.765333 1264.65451,155.765333 C1255.1858,155.765333 1247.67907,148.256 1247.67907,136.650667 C1247.67907,125.301333 1254.84458,117.28 1264.48391,117.28 C1273.69671,117.28 1281.45935,124.362667 1281.45935,136.650667 L1281.45935,136.650667 Z M1294.76674,136.650667 C1294.76674,150.474667 1304.23545,159.776 1317.28692,159.776 C1326.84094,159.776 1332.47099,154.912 1335.37132,150.218667 L1332.55629,148.256 C1329.99718,151.84 1325.47608,155.850667 1317.28692,155.850667 C1306.70926,155.850667 1299.20253,149.024 1299.20253,137.248 L1336.90679,137.248 L1336.90679,135.456 C1336.90679,122.741333 1328.80293,113.269333 1316.09267,113.269333 C1304.83258,113.269333 1294.76674,122.144 1294.76674,136.650667 L1294.76674,136.650667 Z M1299.45844,133.493333 C1300.31148,122.656 1307.98882,117.194667 1316.00737,117.194667 C1324.36713,117.194667 1331.95917,122.4 1332.47099,133.493333 L1299.45844,133.493333 Z M1364.28929,113.269333 C1357.12377,113.269333 1352.00555,117.877333 1350.64069,122.314667 L1350.64069,114.378667 L1346.3755,114.378667 L1346.3755,158.666667 L1350.64069,158.666667 L1350.64069,135.285333 C1350.64069,126.069333 1353.79693,117.450667 1364.28929,117.450667 L1364.28929,113.269333 Z"/>
  </g>
</svg>
